<svg width="625" height="124" viewBox="0 0 625 124" fill="none" xmlns="http://www.w3.org/2000/svg">
<path d="M163.195 73.9567C164.906 83.8918 166.056 94.0038 165.058 104.057C164.852 106.146 164.567 108.23 164.198 110.295C164.198 110.295 162.261 120.968 153.078 123.386C153.078 123.386 143.065 126.655 129.708 118.121C129.708 118.121 108.427 102.882 79.0053 75.2201C79.0053 75.2201 52.0906 49.2345 40.8233 42.19C40.8233 42.19 32.9136 36.4286 26.2378 41.6591C19.1736 47.1895 14.8722 57.4638 11.7653 65.698C8.31013 75.0702 6.96724 85.0898 7.83259 95.0411C8.27687 100.245 9.82181 105.296 12.3651 109.858C12.7239 110.492 12.0505 111.269 11.431 110.895C7.85226 108.752 5.66958 103.742 4.20464 100.748C-4.19175 83.6214 1.25508 62.7238 9.45484 46.8749C11.844 42.249 15.7374 35.7256 19.1834 31.8518C21.3263 29.3815 24.1826 27.6365 27.3586 26.8573C30.7813 26.1171 34.3448 26.3782 37.6231 27.6094C37.6231 27.6094 54.8878 34.4671 82.9085 59.3613C82.9085 59.3613 121.651 91.5164 128.189 94.928C128.189 94.928 137.372 101.855 142.445 98.8607C142.816 98.6759 143.161 98.4446 143.473 98.1725C144.419 97.1731 145.128 95.9734 145.547 94.6625C146.457 91.9474 146.98 89.1175 147.101 86.2563C147.248 84.1277 147.42 81.9893 147.479 79.8656C147.573 76.5228 147.253 74.3106 146.496 69.0506C146.496 68.9965 146.496 68.9375 146.496 68.8835C146.375 67.9363 146.222 66.9925 146.039 66.0519C145.223 61.8957 144.024 57.8242 142.455 53.8899C141.041 50.2689 139.292 46.788 137.229 43.4927C136.411 42.2726 135.304 41.2722 134.008 40.5796C132.712 39.887 131.266 39.5234 129.797 39.5207C125.475 39.5207 119.916 40.8676 106.657 48.2907C106.657 48.2907 82.938 61.0966 56.3085 90.4545C56.1727 90.6358 55.9762 90.7621 55.755 90.8106C55.5338 90.859 55.3025 90.8263 55.1034 90.7184C54.9043 90.6105 54.7506 90.4346 54.6704 90.2228C54.5902 90.011 54.5889 89.7775 54.6666 89.5647C56.6329 83.9065 67.9396 66.8188 96.8108 42.7111C102.763 37.6899 109.455 33.619 116.651 30.6425C122.152 28.3959 128.484 26.5771 134.703 26.4689C136.971 26.4129 139.222 26.8769 141.283 27.8253C143.344 28.7737 145.161 30.1813 146.594 31.9403C149.116 35.0865 151.112 38.9603 152.857 42.5833C154.102 45.1592 155.268 47.7811 156.352 50.4488C156.352 50.4488 161.848 66.1306 163.195 73.9567Z" fill="#F2F2F2"/>
<path d="M46.4545 63.096H40.6292V57.2559C40.6292 56.3706 40.2775 55.5216 39.6515 54.8956C39.0255 54.2696 38.1765 53.918 37.2912 53.918C36.406 53.918 35.557 54.2696 34.931 54.8956C34.305 55.5216 33.9533 56.3706 33.9533 57.2559V63.096H28.0936C27.2298 63.1291 26.4125 63.4956 25.8131 64.1184C25.2137 64.7412 24.8789 65.572 24.8789 66.4364C24.8789 67.3007 25.2137 68.1315 25.8131 68.7543C26.4125 69.3772 27.2298 69.7436 28.0936 69.7767H33.9337V75.6168C33.9337 76.5021 34.2853 77.3511 34.9113 77.9771C35.5373 78.6031 36.3863 78.9548 37.2716 78.9548C38.1569 78.9548 39.0059 78.6031 39.6318 77.9771C40.2578 77.3511 40.6095 76.5021 40.6095 75.6168V69.7915H46.4545C47.3183 69.7583 48.1356 69.3919 48.735 68.7691C49.3344 68.1463 49.6692 67.3155 49.6692 66.4511C49.6692 65.5867 49.3344 64.7559 48.735 64.1331C48.1356 63.5103 47.3183 63.1439 46.4545 63.1107V63.096Z" fill="#00FFFF"/>
<path d="M122.611 62.2411C125.529 62.2411 127.895 59.8751 127.895 56.9565C127.895 54.0379 125.529 51.6719 122.611 51.6719C119.692 51.6719 117.326 54.0379 117.326 56.9565C117.326 59.8751 119.692 62.2411 122.611 62.2411Z" fill="#FF0000"/>
<path d="M122.611 81.202C125.529 81.202 127.895 78.836 127.895 75.9174C127.895 72.9988 125.529 70.6328 122.611 70.6328C119.692 70.6328 117.326 72.9988 117.326 75.9174C117.326 78.836 119.692 81.202 122.611 81.202Z" fill="#009245"/>
<path d="M132.099 71.7177C135.018 71.7177 137.384 69.3517 137.384 66.4331C137.384 63.5144 135.018 61.1484 132.099 61.1484C129.18 61.1484 126.814 63.5144 126.814 66.4331C126.814 69.3517 129.18 71.7177 132.099 71.7177Z" fill="#FBB03B"/>
<path d="M113.136 71.7177C116.055 71.7177 118.421 69.3517 118.421 66.4331C118.421 63.5144 116.055 61.1484 113.136 61.1484C110.218 61.1484 107.852 63.5144 107.852 66.4331C107.852 69.3517 110.218 71.7177 113.136 71.7177Z" fill="#0071BC"/>
<path d="M136.172 66.1188V65.7108C136.173 65.6912 136.17 65.6717 136.163 65.6535C136.155 65.6353 136.145 65.6188 136.131 65.605C136.117 65.5911 136.1 65.5803 136.082 65.5731C136.064 65.566 136.045 65.5626 136.025 65.5633H134.943C134.76 64.9814 134.395 64.4734 133.903 64.1135C133.41 63.7536 132.815 63.5605 132.205 63.5625H129.865V64.7866H131.955C132.402 64.7852 132.831 64.9598 133.15 65.2726C133.469 65.5853 133.653 66.0112 133.66 66.458C133.65 66.8874 133.474 67.2962 133.169 67.5985C133.017 67.7534 132.836 67.8766 132.636 67.9609C132.436 68.0453 132.221 68.0892 132.004 68.0901H131.301V66.0057C131.301 65.8884 131.254 65.7759 131.171 65.6929C131.088 65.6099 130.976 65.5633 130.858 65.5633H128.853C128.833 65.5626 128.814 65.566 128.795 65.5731C128.777 65.5803 128.761 65.5911 128.747 65.605C128.733 65.6188 128.722 65.6353 128.715 65.6535C128.708 65.6717 128.704 65.6912 128.705 65.7108V66.1188C128.705 66.1386 128.708 66.1583 128.715 66.1768C128.722 66.1952 128.733 66.2121 128.747 66.2263C128.76 66.2405 128.777 66.2518 128.795 66.2595C128.813 66.2672 128.833 66.2712 128.853 66.2712H129.836V66.6006H128.853C128.833 66.6006 128.813 66.6045 128.795 66.6122C128.777 66.62 128.76 66.6313 128.747 66.6455C128.733 66.6597 128.722 66.6765 128.715 66.695C128.708 66.7135 128.705 66.7332 128.705 66.753V67.161C128.704 67.1805 128.708 67.2 128.715 67.2182C128.722 67.2364 128.733 67.2529 128.747 67.2668C128.761 67.2806 128.777 67.2915 128.795 67.2986C128.814 67.3058 128.833 67.3091 128.853 67.3085H129.836V69.2994H132.176C132.785 69.2991 133.379 69.1052 133.871 68.7456C134.363 68.3859 134.729 67.8793 134.914 67.2986H135.995C136.015 67.2993 136.035 67.296 136.053 67.2888C136.071 67.2816 136.087 67.2708 136.101 67.257C136.115 67.2431 136.126 67.2266 136.133 67.2084C136.14 67.1902 136.144 67.1707 136.143 67.1511V66.7431C136.144 66.7233 136.14 66.7036 136.133 66.6852C136.126 66.6667 136.115 66.6499 136.102 66.6356C136.088 66.6214 136.071 66.6101 136.053 66.6024C136.035 66.5947 136.015 66.5907 135.995 66.5907H135.042C135.042 66.5366 135.042 66.4826 135.042 66.4236C135.042 66.3646 135.042 66.3154 135.042 66.2614H135.995C136.017 66.2657 136.039 66.2653 136.06 66.2602C136.081 66.2551 136.101 66.2453 136.118 66.2317C136.134 66.2181 136.148 66.2009 136.158 66.1814C136.167 66.1619 136.172 66.1405 136.172 66.1188Z" fill="#F2F2F2"/>
<path d="M125.605 78.6897H124.13L123.639 77.4165H121.471L120.979 78.6897H119.583L121.898 73.1445H123.221L125.605 78.6897ZM123.221 76.271L122.562 74.58L121.928 76.271H123.221Z" fill="#F2F2F2"/>
<path d="M115.786 69.2991H114.232L113.166 67.5195L112.04 69.2991H110.481L112.408 66.5216L110.545 63.7539H112.094L113.116 65.3614L114.149 63.7539H115.658L113.903 66.4429L115.786 69.2991Z" fill="#F2F2F2"/>
<path d="M125.38 54.9219L123.261 58.0238V60.4818H121.963V58.0484L119.854 54.9366H121.329L122.583 56.903L123.841 54.9366L125.38 54.9219Z" fill="#F2F2F2"/>
<path d="M29.0562 24.7959C35.9034 24.7959 41.4541 19.2451 41.4541 12.398C41.4541 5.55075 35.9034 0 29.0562 0C22.209 0 16.6582 5.55075 16.6582 12.398C16.6582 19.2451 22.209 24.7959 29.0562 24.7959Z" fill="#F2F2F2"/>
<path d="M136.176 24.7959C143.023 24.7959 148.574 19.2451 148.574 12.398C148.574 5.55075 143.023 0 136.176 0C129.329 0 123.778 5.55075 123.778 12.398C123.778 19.2451 129.329 24.7959 136.176 24.7959Z" fill="#F2F2F2"/>
<path d="M430.147 47.8694H442.967V43.0273H430.147V47.8694Z" fill="#F2F2F2"/>
<path d="M218.873 44.6372C216.078 43.4523 213.073 42.8437 210.038 42.8477C206.534 42.8477 194.316 42.8477 194.316 42.8477V50.4717C194.316 50.4717 206.527 50.4717 209.602 50.4717C211.62 50.4457 213.617 50.8776 215.444 51.7349C216.601 52.2732 217.625 53.0574 218.447 54.0326C219.269 55.0079 219.869 56.1507 220.204 57.3815C221.038 60.1649 221.038 63.1319 220.204 65.9153C219.211 69.2236 217.016 71.3138 213.489 72.2912C212.059 72.6689 210.585 72.851 209.106 72.8326H202.392V57.7951H194.316V80.4867H209.061C212.153 80.5555 215.231 80.0455 218.136 78.983C220.368 78.186 222.389 76.8918 224.048 75.1984C225.706 73.5051 226.957 71.4568 227.707 69.2086C229.163 64.9498 229.346 60.3591 228.234 55.9981C227.718 53.4845 226.596 51.1352 224.964 49.155C223.333 47.1747 221.241 45.6237 218.873 44.6372V44.6372Z" fill="#F2F2F2"/>
<path d="M309.067 58.5306H292.075V66.0494H301.097V72.4629L300.782 72.5832C299.064 73.2098 297.256 73.5576 295.428 73.6133C293.215 73.7661 290.993 73.5113 288.872 72.8614C287.282 72.4214 285.829 71.5881 284.646 70.4383C283.464 69.2884 282.59 67.8592 282.105 66.2825C281.282 63.72 281.157 60.9844 281.744 58.3577C282.011 56.7799 282.662 55.2917 283.638 54.024C284.615 52.7563 285.888 51.7478 287.346 51.087C289.043 50.2961 290.881 49.8513 292.752 49.7788C296.037 49.5282 299.34 49.9111 302.481 50.9066C303.195 51.1472 303.925 51.4329 304.669 51.7487L305.661 52.1772L306.834 52.681L307.285 50.5682C307.576 49.2249 307.867 47.869 308.158 46.5006C308.207 46.2026 308.161 45.8966 308.026 45.6264C307.891 45.3562 307.674 45.1358 307.406 44.9968L306.902 44.7637C306.203 44.4329 305.473 44.087 304.722 43.8013C301.719 42.7032 298.55 42.126 295.353 42.0946C291.451 41.8668 287.548 42.5302 283.94 44.0344C281.632 44.9791 279.566 46.4315 277.896 48.2837C276.226 50.1359 274.994 52.3404 274.293 54.7337C273.011 58.9428 272.925 63.4258 274.045 67.681C274.975 71.6314 277.314 75.1068 280.624 77.4554C283.636 79.5145 287.131 80.7556 290.767 81.0569C291.943 81.1851 293.125 81.2504 294.308 81.2524C296.308 81.2558 298.302 81.0593 300.263 80.6659C303.138 80.1361 305.876 79.0258 308.308 77.4028C308.555 77.2405 308.754 77.016 308.886 76.7519C309.018 76.4879 309.078 76.1937 309.06 75.899C309.06 72.8539 309.067 58.5306 309.067 58.5306Z" fill="#F2F2F2"/>
<path d="M269.029 58.5325H252.037V66.0513H261.059V72.4648L260.744 72.5851C259.025 73.2117 257.218 73.5594 255.39 73.6151C253.177 73.768 250.955 73.5131 248.834 72.8633C247.245 72.4214 245.793 71.5874 244.61 70.4378C243.428 69.2883 242.553 67.86 242.067 66.2843C241.25 63.7206 241.128 60.9859 241.713 58.3595C241.981 56.7817 242.631 55.2935 243.608 54.0258C244.584 52.7581 245.857 51.7496 247.315 51.0888C249.01 50.2987 250.845 49.8539 252.713 49.7806C256.001 49.5295 259.307 49.9124 262.45 50.9084C263.165 51.149 263.894 51.4347 264.631 51.7505L265.631 52.1791L266.796 52.6828L267.255 50.57C267.546 49.2267 267.836 47.8708 268.127 46.5024C268.172 46.1995 268.119 45.8903 267.975 45.6197C267.832 45.3492 267.606 45.1316 267.33 44.9986L266.774 44.7129C266.074 44.3821 265.345 44.0362 264.586 43.7505C261.585 42.6524 258.419 42.0752 255.225 42.0438C251.322 41.816 247.419 42.4794 243.811 43.9836C241.508 44.9353 239.448 46.3932 237.785 48.2492C236.121 50.1052 234.897 52.3118 234.202 54.7054C232.916 58.9139 232.83 63.398 233.954 67.6528C234.884 71.6031 237.223 75.0785 240.533 77.4272C243.545 79.4863 247.04 80.7273 250.676 81.0287C251.852 81.1571 253.034 81.2224 254.217 81.2242C256.217 81.2276 258.212 81.0311 260.172 80.6377C263.047 80.105 265.784 78.9949 268.217 77.3745C268.464 77.2123 268.663 76.9878 268.795 76.7237C268.927 76.4597 268.987 76.1654 268.969 75.8708C269.029 72.8558 269.029 58.5325 269.029 58.5325Z" fill="#F2F2F2"/>
<path d="M567.529 64.1239C569.671 64.1239 571.829 64.1915 573.972 64.0186C579.927 63.5525 584.258 57.3494 582.927 51.3269C582.456 48.9971 581.2 46.8992 579.37 45.3832C577.539 43.8672 575.244 43.0246 572.867 42.9961C564.346 42.9961 555.847 42.9961 547.371 42.9961H546.927V47.9134H547.604C556.085 47.9134 564.566 47.9134 573.04 47.9134C576.747 47.9134 579.326 51.8457 578.085 55.4322C577.703 56.5495 576.976 57.5162 576.008 58.1922C575.04 58.8681 573.882 59.2182 572.702 59.1916H546.912V80.3118H551.641V64.1239H552.25C554.604 64.1239 556.957 64.1239 559.311 64.1239C559.484 64.1135 559.658 64.1419 559.819 64.2069C559.98 64.2719 560.125 64.372 560.243 64.4998C565.461 69.6828 570.684 74.8582 575.912 80.0261C576.02 80.142 576.152 80.233 576.299 80.2928C576.445 80.3525 576.603 80.3795 576.762 80.372C578.724 80.372 580.686 80.372 582.649 80.372C582.792 80.372 582.927 80.372 583.145 80.372L566.777 64.1239H567.529Z" fill="#F2F2F2"/>
<path d="M497.701 42.9848C497.545 42.961 497.386 42.9999 497.26 43.0929C497.133 43.186 497.048 43.3255 497.024 43.481C493.761 53.0048 490.49 62.5286 487.212 72.0524C487.159 72.2178 487.092 72.3832 486.986 72.6765C483.558 62.6765 480.219 52.8269 476.813 42.9547C475.31 42.9547 473.806 42.9547 472.302 42.9547C471.821 42.9547 471.64 43.1126 471.483 43.5562C467.362 55.6213 463.232 67.6865 459.092 79.7516C459.024 79.9321 458.979 80.1125 458.911 80.3231H463.941C467.37 70.3381 470.791 60.3682 474.249 50.2479C474.543 51.0825 474.783 51.7968 475.001 52.5035C478.119 61.5963 481.234 70.6915 484.347 79.7892C484.362 79.8733 484.393 79.9536 484.438 80.0257C484.484 80.0977 484.544 80.16 484.614 80.2089C484.683 80.2578 484.762 80.2925 484.846 80.3108C484.929 80.3291 485.015 80.3307 485.099 80.3155C486.355 80.3155 487.61 80.3155 488.858 80.3155C489.317 80.3155 489.49 80.1652 489.61 79.7366C493.214 69.2103 496.821 58.684 500.43 48.1577C501.024 46.4359 501.61 44.7141 502.219 42.8945C500.678 42.9923 499.189 43.0073 497.701 42.9848Z" fill="#F2F2F2"/>
<path d="M526.686 43.207C525.701 43.0341 524.686 43.004 523.679 42.9062V47.8311C524.498 47.9213 525.258 47.9814 526.01 48.0867C529.017 48.5409 531.781 50.0019 533.85 52.2309C535.919 54.4598 537.171 57.3247 537.4 60.3573C537.726 63.5366 536.933 66.7298 535.159 69.3878C533.385 72.0459 530.74 74.0025 527.679 74.9212C524.673 75.6527 521.55 75.7678 518.498 75.2596C511.949 74.425 507.092 68.6581 506.979 61.8987C506.885 58.7842 507.867 55.7324 509.762 53.2585C511.656 50.7846 514.346 49.0402 517.378 48.3198C518.461 48.0716 519.573 47.9814 520.701 47.8085V42.9062C519.551 43.0341 518.446 43.1168 517.348 43.3047C504.01 45.598 497.604 61.6355 505.874 72.8912C507.24 74.8635 509.005 76.5275 511.053 77.776C513.102 79.0244 515.39 79.8295 517.769 80.1393C519.753 80.3312 521.747 80.399 523.739 80.3423C524.856 80.3588 525.973 80.2808 527.077 80.1092C529.622 79.6386 532.039 78.6407 534.175 77.1795C536.31 75.7184 538.116 73.8264 539.477 71.6254C540.837 69.4243 541.722 66.9629 542.074 64.3994C542.426 61.8359 542.238 59.2271 541.521 56.7408C539.438 49.1017 534.295 44.598 526.686 43.207Z" fill="#F2F2F2"/>
<path d="M348.241 68.8571C340.882 60.421 333.526 51.995 326.173 43.579C325.999 43.4092 325.769 43.31 325.526 43.3008C324.271 43.3008 323.023 43.3008 321.767 43.3008H320V80.6466H324.737V49.6692L348.519 76.9323C348.519 76.7218 348.519 76.6391 348.519 76.5564C348.519 74.218 348.519 71.8797 348.519 69.5489C348.504 69.2942 348.406 69.0513 348.241 68.8571V68.8571Z" fill="#F2F2F2"/>
<path d="M385.513 59.249H370.295V47.8956H401.738V43.0234H365.535V64.1362H385.513V59.249Z" fill="#F2F2F2"/>
<path d="M605.249 61.6742C611.55 55.4561 617.821 49.2832 624.189 42.99C621.986 42.99 619.941 42.99 617.896 42.99C617.705 42.9802 617.514 43.0129 617.337 43.0857C617.16 43.1585 617.002 43.2696 616.873 43.411C611.665 48.5689 606.45 53.7218 601.227 58.8697C601.101 59.0038 600.948 59.1094 600.778 59.1795C600.608 59.2495 600.425 59.2823 600.242 59.2757C598.572 59.2757 596.896 59.2757 595.219 59.2757C595.039 59.2757 594.858 59.2757 594.678 59.2757V64.1704H595.257C596.948 64.1704 598.64 64.1704 600.332 64.1704C600.514 64.1609 600.696 64.1916 600.865 64.2605C601.034 64.3294 601.186 64.4347 601.309 64.5689C606.507 69.7167 611.708 74.8596 616.911 79.9974C617.029 80.1268 617.175 80.2283 617.338 80.2946C617.5 80.3609 617.675 80.3904 617.851 80.3809C619.76 80.3809 621.67 80.3809 623.587 80.3809H624.196L605.249 61.6742Z" fill="#F2F2F2"/>
<path d="M406.78 47.9332H422.487V80.3166H427.231V43.0234H406.78V47.9332Z" fill="#F2F2F2"/>
<path d="M370.249 68.0586H365.535V80.3217H401.738V75.4345H370.249V68.0586Z" fill="#F2F2F2"/>
<path d="M351.736 80.3205H356.443V43.0273H351.736V80.3205Z" fill="#F2F2F2"/>
<path d="M587.02 80.3359H591.741V43.0352H587.02V80.3359Z" fill="#F2F2F2"/>
<path d="M460.125 68.8198C458.185 63.1206 456.235 57.4238 454.276 51.7296C453.338 48.9777 452.391 46.2208 451.433 43.4589C451.373 43.2785 451.193 43.0078 451.065 43.0078C449.479 43.0078 447.885 43.0078 446.23 43.0078C450.08 54.2409 453.915 65.4063 457.772 76.6619L457.967 76.1281C458.719 74.0303 459.426 71.9326 460.125 69.8273C460.226 69.4991 460.226 69.1481 460.125 68.8198V68.8198Z" fill="#F2F2F2"/>
</svg>
